<mxfile host="Electron" modified="2023-09-13T13:34:24.095Z" agent="Mozilla/5.0 (X11; Linux x86_64) AppleWebKit/537.36 (KHTML, like Gecko) draw.io/21.6.8 Chrome/114.0.5735.289 Electron/25.5.0 Safari/537.36" etag="FLEUoT8WhO04xhYkh20T" version="21.6.8" type="device">
  <diagram name="Page-1" id="kQdmEbzw0MFmfQP24zmO">
    <mxGraphModel dx="989" dy="600" grid="1" gridSize="10" guides="1" tooltips="1" connect="1" arrows="1" fold="1" page="1" pageScale="1" pageWidth="850" pageHeight="1100" math="0" shadow="0">
      <root>
        <mxCell id="0" />
        <mxCell id="1" parent="0" />
        <mxCell id="DYxqlePHaBiBGxS2itR7-1" value="Book" style="rounded=1;arcSize=10;whiteSpace=wrap;html=1;align=center;aspect=fixed;fontStyle=1;fontSize=15;" vertex="1" parent="1">
          <mxGeometry x="93" y="450" width="140" height="56" as="geometry" />
        </mxCell>
        <mxCell id="DYxqlePHaBiBGxS2itR7-2" value="Document" style="rounded=1;arcSize=10;whiteSpace=wrap;html=1;align=center;aspect=fixed;fontStyle=1;fontSize=15;" vertex="1" parent="1">
          <mxGeometry x="190" y="306" width="140" height="56" as="geometry" />
        </mxCell>
        <mxCell id="DYxqlePHaBiBGxS2itR7-4" value="Paper" style="rounded=1;arcSize=10;whiteSpace=wrap;html=1;align=center;aspect=fixed;fontStyle=1;fontSize=15;" vertex="1" parent="1">
          <mxGeometry x="286" y="450" width="140" height="56" as="geometry" />
        </mxCell>
        <mxCell id="DYxqlePHaBiBGxS2itR7-5" value="ID_DOC" style="ellipse;whiteSpace=wrap;html=1;align=center;fontStyle=4;fontSize=8;aspect=fixed;" vertex="1" parent="1">
          <mxGeometry x="100" y="320" width="70" height="28" as="geometry" />
        </mxCell>
        <mxCell id="DYxqlePHaBiBGxS2itR7-8" value="" style="edgeStyle=orthogonalEdgeStyle;rounded=0;orthogonalLoop=1;jettySize=auto;html=1;endArrow=none;endFill=0;" edge="1" parent="1" source="DYxqlePHaBiBGxS2itR7-7" target="DYxqlePHaBiBGxS2itR7-2">
          <mxGeometry relative="1" as="geometry" />
        </mxCell>
        <mxCell id="DYxqlePHaBiBGxS2itR7-7" value="d" style="ellipse;whiteSpace=wrap;html=1;aspect=fixed;" vertex="1" parent="1">
          <mxGeometry x="247" y="400" width="26" height="26" as="geometry" />
        </mxCell>
        <mxCell id="DYxqlePHaBiBGxS2itR7-10" value="" style="endArrow=none;html=1;rounded=0;exitX=1;exitY=1;exitDx=0;exitDy=0;entryX=0.25;entryY=0;entryDx=0;entryDy=0;endFill=0;" edge="1" parent="1" source="DYxqlePHaBiBGxS2itR7-7" target="DYxqlePHaBiBGxS2itR7-4">
          <mxGeometry width="50" height="50" relative="1" as="geometry">
            <mxPoint x="310" y="426" as="sourcePoint" />
            <mxPoint x="360" y="376" as="targetPoint" />
          </mxGeometry>
        </mxCell>
        <mxCell id="DYxqlePHaBiBGxS2itR7-11" value="" style="endArrow=none;html=1;rounded=0;exitX=0;exitY=1;exitDx=0;exitDy=0;entryX=0.75;entryY=0;entryDx=0;entryDy=0;endFill=0;" edge="1" parent="1" source="DYxqlePHaBiBGxS2itR7-7" target="DYxqlePHaBiBGxS2itR7-1">
          <mxGeometry width="50" height="50" relative="1" as="geometry">
            <mxPoint x="284" y="440" as="sourcePoint" />
            <mxPoint x="335" y="476" as="targetPoint" />
          </mxGeometry>
        </mxCell>
        <mxCell id="DYxqlePHaBiBGxS2itR7-13" value="&lt;span style=&quot;font-size: 8px;&quot;&gt;Title&lt;/span&gt;" style="ellipse;whiteSpace=wrap;html=1;align=center;aspect=fixed;" vertex="1" parent="1">
          <mxGeometry x="120" y="276" width="70" height="28" as="geometry" />
        </mxCell>
        <mxCell id="DYxqlePHaBiBGxS2itR7-16" value="&lt;p style=&quot;line-height: 60%;&quot;&gt;&lt;span style=&quot;font-size: 8px;&quot;&gt;NÂº of pages&lt;/span&gt;&lt;/p&gt;" style="ellipse;whiteSpace=wrap;html=1;align=center;aspect=fixed;" vertex="1" parent="1">
          <mxGeometry x="343" y="280" width="70" height="28" as="geometry" />
        </mxCell>
        <mxCell id="DYxqlePHaBiBGxS2itR7-17" value="&lt;p style=&quot;line-height: 60%;&quot;&gt;&lt;span style=&quot;font-size: 8px;&quot;&gt;Publication year&lt;/span&gt;&lt;/p&gt;" style="ellipse;whiteSpace=wrap;html=1;align=center;aspect=fixed;" vertex="1" parent="1">
          <mxGeometry x="277" y="260" width="70" height="28" as="geometry" />
        </mxCell>
        <mxCell id="DYxqlePHaBiBGxS2itR7-22" value="" style="endArrow=none;html=1;rounded=0;exitX=1;exitY=0.5;exitDx=0;exitDy=0;entryX=0;entryY=0.5;entryDx=0;entryDy=0;" edge="1" parent="1" source="DYxqlePHaBiBGxS2itR7-5" target="DYxqlePHaBiBGxS2itR7-2">
          <mxGeometry width="50" height="50" relative="1" as="geometry">
            <mxPoint x="320" y="336" as="sourcePoint" />
            <mxPoint x="370" y="286" as="targetPoint" />
          </mxGeometry>
        </mxCell>
        <mxCell id="DYxqlePHaBiBGxS2itR7-24" value="" style="endArrow=none;html=1;rounded=0;exitX=1;exitY=1;exitDx=0;exitDy=0;" edge="1" parent="1" source="DYxqlePHaBiBGxS2itR7-13" target="DYxqlePHaBiBGxS2itR7-2">
          <mxGeometry width="50" height="50" relative="1" as="geometry">
            <mxPoint x="170" y="286" as="sourcePoint" />
            <mxPoint x="190" y="286" as="targetPoint" />
          </mxGeometry>
        </mxCell>
        <mxCell id="DYxqlePHaBiBGxS2itR7-25" value="" style="endArrow=none;html=1;rounded=0;exitX=0.5;exitY=1;exitDx=0;exitDy=0;entryX=0.317;entryY=0.01;entryDx=0;entryDy=0;entryPerimeter=0;" edge="1" parent="1" target="DYxqlePHaBiBGxS2itR7-2">
          <mxGeometry width="50" height="50" relative="1" as="geometry">
            <mxPoint x="224" y="288" as="sourcePoint" />
            <mxPoint x="200" y="344" as="targetPoint" />
          </mxGeometry>
        </mxCell>
        <mxCell id="DYxqlePHaBiBGxS2itR7-26" value="" style="endArrow=none;html=1;rounded=0;exitX=0.5;exitY=1;exitDx=0;exitDy=0;entryX=0.817;entryY=0.006;entryDx=0;entryDy=0;entryPerimeter=0;" edge="1" parent="1" source="DYxqlePHaBiBGxS2itR7-17" target="DYxqlePHaBiBGxS2itR7-2">
          <mxGeometry width="50" height="50" relative="1" as="geometry">
            <mxPoint x="242" y="298" as="sourcePoint" />
            <mxPoint x="244" y="317" as="targetPoint" />
          </mxGeometry>
        </mxCell>
        <mxCell id="DYxqlePHaBiBGxS2itR7-27" value="" style="endArrow=none;html=1;rounded=0;exitX=0.055;exitY=0.738;exitDx=0;exitDy=0;entryX=1;entryY=0.176;entryDx=0;entryDy=0;entryPerimeter=0;exitPerimeter=0;" edge="1" parent="1" source="DYxqlePHaBiBGxS2itR7-16" target="DYxqlePHaBiBGxS2itR7-2">
          <mxGeometry width="50" height="50" relative="1" as="geometry">
            <mxPoint x="316" y="298" as="sourcePoint" />
            <mxPoint x="314" y="316" as="targetPoint" />
          </mxGeometry>
        </mxCell>
        <mxCell id="DYxqlePHaBiBGxS2itR7-29" value="&lt;span style=&quot;font-size: 8px;&quot;&gt;ISBN&lt;/span&gt;" style="ellipse;whiteSpace=wrap;html=1;align=center;aspect=fixed;" vertex="1" parent="1">
          <mxGeometry x="83" y="520" width="70" height="28" as="geometry" />
        </mxCell>
        <mxCell id="DYxqlePHaBiBGxS2itR7-30" value="&lt;span style=&quot;font-size: 8px;&quot;&gt;Edition&lt;/span&gt;" style="ellipse;whiteSpace=wrap;html=1;align=center;aspect=fixed;" vertex="1" parent="1">
          <mxGeometry x="169" y="520" width="70" height="28" as="geometry" />
        </mxCell>
        <mxCell id="DYxqlePHaBiBGxS2itR7-31" value="&lt;span style=&quot;font-size: 8px;&quot;&gt;DOI&lt;/span&gt;" style="ellipse;whiteSpace=wrap;html=1;align=center;aspect=fixed;" vertex="1" parent="1">
          <mxGeometry x="256" y="520" width="70" height="28" as="geometry" />
        </mxCell>
        <mxCell id="DYxqlePHaBiBGxS2itR7-32" value="&lt;span style=&quot;font-size: 8px;&quot;&gt;Issue&lt;/span&gt;" style="ellipse;whiteSpace=wrap;html=1;align=center;aspect=fixed;" vertex="1" parent="1">
          <mxGeometry x="425" y="513" width="70" height="28" as="geometry" />
        </mxCell>
        <mxCell id="DYxqlePHaBiBGxS2itR7-33" value="&lt;span style=&quot;font-size: 8px;&quot;&gt;Volume&lt;/span&gt;" style="ellipse;whiteSpace=wrap;html=1;align=center;aspect=fixed;" vertex="1" parent="1">
          <mxGeometry x="436" y="464" width="70" height="28" as="geometry" />
        </mxCell>
        <mxCell id="DYxqlePHaBiBGxS2itR7-34" value="&lt;span style=&quot;font-size: 8px;&quot;&gt;Journal&lt;/span&gt;" style="ellipse;whiteSpace=wrap;html=1;align=center;aspect=fixed;" vertex="1" parent="1">
          <mxGeometry x="339" y="520" width="70" height="28" as="geometry" />
        </mxCell>
        <mxCell id="DYxqlePHaBiBGxS2itR7-37" value="" style="endArrow=none;html=1;rounded=0;exitX=0.5;exitY=0;exitDx=0;exitDy=0;entryX=0.25;entryY=1;entryDx=0;entryDy=0;" edge="1" parent="1" source="DYxqlePHaBiBGxS2itR7-29" target="DYxqlePHaBiBGxS2itR7-1">
          <mxGeometry width="50" height="50" relative="1" as="geometry">
            <mxPoint x="123" y="530" as="sourcePoint" />
            <mxPoint x="143" y="530" as="targetPoint" />
          </mxGeometry>
        </mxCell>
        <mxCell id="DYxqlePHaBiBGxS2itR7-38" value="" style="endArrow=none;html=1;rounded=0;exitX=0.5;exitY=0;exitDx=0;exitDy=0;entryX=0.75;entryY=1;entryDx=0;entryDy=0;" edge="1" parent="1" source="DYxqlePHaBiBGxS2itR7-30" target="DYxqlePHaBiBGxS2itR7-1">
          <mxGeometry width="50" height="50" relative="1" as="geometry">
            <mxPoint x="118" y="530" as="sourcePoint" />
            <mxPoint x="138" y="516" as="targetPoint" />
          </mxGeometry>
        </mxCell>
        <mxCell id="DYxqlePHaBiBGxS2itR7-39" value="" style="endArrow=none;html=1;rounded=0;exitX=0.5;exitY=0;exitDx=0;exitDy=0;entryX=0.097;entryY=1.003;entryDx=0;entryDy=0;entryPerimeter=0;" edge="1" parent="1" source="DYxqlePHaBiBGxS2itR7-31" target="DYxqlePHaBiBGxS2itR7-4">
          <mxGeometry width="50" height="50" relative="1" as="geometry">
            <mxPoint x="316" y="520" as="sourcePoint" />
            <mxPoint x="306" y="506" as="targetPoint" />
          </mxGeometry>
        </mxCell>
        <mxCell id="DYxqlePHaBiBGxS2itR7-40" value="" style="endArrow=none;html=1;rounded=0;exitX=0.5;exitY=0;exitDx=0;exitDy=0;entryX=0.546;entryY=1.007;entryDx=0;entryDy=0;entryPerimeter=0;" edge="1" parent="1" source="DYxqlePHaBiBGxS2itR7-34" target="DYxqlePHaBiBGxS2itR7-4">
          <mxGeometry width="50" height="50" relative="1" as="geometry">
            <mxPoint x="301" y="530" as="sourcePoint" />
            <mxPoint x="366" y="510" as="targetPoint" />
          </mxGeometry>
        </mxCell>
        <mxCell id="DYxqlePHaBiBGxS2itR7-41" value="" style="endArrow=none;html=1;rounded=0;exitX=0;exitY=0;exitDx=0;exitDy=0;entryX=0.986;entryY=0.965;entryDx=0;entryDy=0;entryPerimeter=0;" edge="1" parent="1" source="DYxqlePHaBiBGxS2itR7-32" target="DYxqlePHaBiBGxS2itR7-4">
          <mxGeometry width="50" height="50" relative="1" as="geometry">
            <mxPoint x="372" y="530" as="sourcePoint" />
            <mxPoint x="372" y="515" as="targetPoint" />
          </mxGeometry>
        </mxCell>
        <mxCell id="DYxqlePHaBiBGxS2itR7-42" value="" style="endArrow=none;html=1;rounded=0;exitX=0;exitY=0.5;exitDx=0;exitDy=0;entryX=1;entryY=0.5;entryDx=0;entryDy=0;" edge="1" parent="1" source="DYxqlePHaBiBGxS2itR7-33" target="DYxqlePHaBiBGxS2itR7-4">
          <mxGeometry width="50" height="50" relative="1" as="geometry">
            <mxPoint x="451" y="514" as="sourcePoint" />
            <mxPoint x="436" y="502" as="targetPoint" />
          </mxGeometry>
        </mxCell>
        <mxCell id="DYxqlePHaBiBGxS2itR7-45" value="Author" style="rounded=1;arcSize=10;whiteSpace=wrap;html=1;align=center;aspect=fixed;fontStyle=1;fontSize=15;" vertex="1" parent="1">
          <mxGeometry x="530" y="306" width="140" height="56" as="geometry" />
        </mxCell>
        <mxCell id="DYxqlePHaBiBGxS2itR7-46" value="" style="endArrow=none;html=1;rounded=0;exitX=1;exitY=0.5;exitDx=0;exitDy=0;entryX=0;entryY=0.5;entryDx=0;entryDy=0;" edge="1" parent="1" source="DYxqlePHaBiBGxS2itR7-2" target="DYxqlePHaBiBGxS2itR7-45">
          <mxGeometry relative="1" as="geometry">
            <mxPoint x="370" y="333.76" as="sourcePoint" />
            <mxPoint x="510" y="334" as="targetPoint" />
          </mxGeometry>
        </mxCell>
        <mxCell id="DYxqlePHaBiBGxS2itR7-47" value="M" style="resizable=0;html=1;whiteSpace=wrap;align=left;verticalAlign=bottom;" connectable="0" vertex="1" parent="DYxqlePHaBiBGxS2itR7-46">
          <mxGeometry x="-1" relative="1" as="geometry" />
        </mxCell>
        <mxCell id="DYxqlePHaBiBGxS2itR7-48" value="N" style="resizable=0;html=1;whiteSpace=wrap;align=right;verticalAlign=bottom;" connectable="0" vertex="1" parent="DYxqlePHaBiBGxS2itR7-46">
          <mxGeometry x="1" relative="1" as="geometry" />
        </mxCell>
        <mxCell id="DYxqlePHaBiBGxS2itR7-49" value="ID_AUTHOR" style="ellipse;whiteSpace=wrap;html=1;align=center;fontStyle=4;fontSize=8;aspect=fixed;" vertex="1" parent="1">
          <mxGeometry x="450" y="288" width="70" height="28" as="geometry" />
        </mxCell>
        <mxCell id="DYxqlePHaBiBGxS2itR7-50" value="" style="endArrow=none;html=1;rounded=0;exitX=1;exitY=0.5;exitDx=0;exitDy=0;entryX=0.013;entryY=0.022;entryDx=0;entryDy=0;entryPerimeter=0;" edge="1" parent="1" source="DYxqlePHaBiBGxS2itR7-49" target="DYxqlePHaBiBGxS2itR7-45">
          <mxGeometry width="50" height="50" relative="1" as="geometry">
            <mxPoint x="670" y="282" as="sourcePoint" />
            <mxPoint x="530" y="306" as="targetPoint" />
          </mxGeometry>
        </mxCell>
        <mxCell id="DYxqlePHaBiBGxS2itR7-52" value="&lt;span style=&quot;font-size: 8px;&quot;&gt;Last name&lt;/span&gt;" style="ellipse;whiteSpace=wrap;html=1;align=center;aspect=fixed;" vertex="1" parent="1">
          <mxGeometry x="520" y="266" width="70" height="28" as="geometry" />
        </mxCell>
        <mxCell id="DYxqlePHaBiBGxS2itR7-53" value="&lt;p style=&quot;line-height: 55%;&quot;&gt;&lt;span style=&quot;font-size: 8px;&quot;&gt;Remaining&lt;br&gt;names&lt;/span&gt;&lt;/p&gt;" style="ellipse;whiteSpace=wrap;html=1;align=center;aspect=fixed;" vertex="1" parent="1">
          <mxGeometry x="600" y="266" width="70" height="28" as="geometry" />
        </mxCell>
        <mxCell id="DYxqlePHaBiBGxS2itR7-55" value="&lt;p style=&quot;line-height: 55%;&quot;&gt;&lt;span style=&quot;font-size: 8px;&quot;&gt;Birth date&lt;/span&gt;&lt;/p&gt;" style="ellipse;whiteSpace=wrap;html=1;align=center;aspect=fixed;" vertex="1" parent="1">
          <mxGeometry x="670" y="280" width="70" height="28" as="geometry" />
        </mxCell>
        <mxCell id="DYxqlePHaBiBGxS2itR7-56" value="&lt;p style=&quot;line-height: 55%;&quot;&gt;&lt;span style=&quot;font-size: 8px;&quot;&gt;Social URL&lt;/span&gt;&lt;/p&gt;" style="ellipse;whiteSpace=wrap;html=1;align=center;aspect=fixed;" vertex="1" parent="1">
          <mxGeometry x="680" y="320" width="70" height="28" as="geometry" />
        </mxCell>
        <mxCell id="DYxqlePHaBiBGxS2itR7-57" value="&lt;p style=&quot;line-height: 60%;&quot;&gt;&lt;span style=&quot;font-size: 8px;&quot;&gt;Publication&lt;br&gt;place&lt;br&gt;&lt;/span&gt;&lt;/p&gt;" style="ellipse;whiteSpace=wrap;html=1;align=center;aspect=fixed;" vertex="1" parent="1">
          <mxGeometry x="13" y="464" width="70" height="28" as="geometry" />
        </mxCell>
        <mxCell id="DYxqlePHaBiBGxS2itR7-58" value="&lt;span style=&quot;font-size: 8px;&quot;&gt;Language&lt;/span&gt;" style="ellipse;whiteSpace=wrap;html=1;align=center;aspect=fixed;" vertex="1" parent="1">
          <mxGeometry x="185" y="260" width="70" height="28" as="geometry" />
        </mxCell>
        <mxCell id="DYxqlePHaBiBGxS2itR7-59" value="" style="endArrow=none;html=1;rounded=0;exitX=1;exitY=0.5;exitDx=0;exitDy=0;entryX=0;entryY=0.5;entryDx=0;entryDy=0;" edge="1" parent="1" source="DYxqlePHaBiBGxS2itR7-57" target="DYxqlePHaBiBGxS2itR7-1">
          <mxGeometry width="50" height="50" relative="1" as="geometry">
            <mxPoint x="128" y="530" as="sourcePoint" />
            <mxPoint x="138" y="516" as="targetPoint" />
          </mxGeometry>
        </mxCell>
        <mxCell id="DYxqlePHaBiBGxS2itR7-60" value="&lt;p style=&quot;line-height: 55%;&quot;&gt;&lt;span style=&quot;font-size: 8px;&quot;&gt;Nationality&lt;/span&gt;&lt;/p&gt;" style="ellipse;whiteSpace=wrap;html=1;align=center;aspect=fixed;" vertex="1" parent="1">
          <mxGeometry x="680" y="362" width="70" height="28" as="geometry" />
        </mxCell>
        <mxCell id="DYxqlePHaBiBGxS2itR7-61" value="" style="endArrow=none;html=1;rounded=0;exitX=0.5;exitY=1;exitDx=0;exitDy=0;entryX=0.185;entryY=-0.009;entryDx=0;entryDy=0;entryPerimeter=0;" edge="1" parent="1" source="DYxqlePHaBiBGxS2itR7-52" target="DYxqlePHaBiBGxS2itR7-45">
          <mxGeometry width="50" height="50" relative="1" as="geometry">
            <mxPoint x="549" y="299" as="sourcePoint" />
            <mxPoint x="561" y="304" as="targetPoint" />
          </mxGeometry>
        </mxCell>
        <mxCell id="DYxqlePHaBiBGxS2itR7-62" value="" style="endArrow=none;html=1;rounded=0;exitX=0.5;exitY=1;exitDx=0;exitDy=0;entryX=0.75;entryY=0;entryDx=0;entryDy=0;" edge="1" parent="1" source="DYxqlePHaBiBGxS2itR7-53" target="DYxqlePHaBiBGxS2itR7-45">
          <mxGeometry width="50" height="50" relative="1" as="geometry">
            <mxPoint x="620" y="294" as="sourcePoint" />
            <mxPoint x="621" y="305" as="targetPoint" />
          </mxGeometry>
        </mxCell>
        <mxCell id="DYxqlePHaBiBGxS2itR7-63" value="" style="endArrow=none;html=1;rounded=0;exitX=0.057;exitY=0.738;exitDx=0;exitDy=0;entryX=0.984;entryY=0.014;entryDx=0;entryDy=0;exitPerimeter=0;entryPerimeter=0;" edge="1" parent="1" source="DYxqlePHaBiBGxS2itR7-55" target="DYxqlePHaBiBGxS2itR7-45">
          <mxGeometry width="50" height="50" relative="1" as="geometry">
            <mxPoint x="645" y="304" as="sourcePoint" />
            <mxPoint x="645" y="316" as="targetPoint" />
          </mxGeometry>
        </mxCell>
        <mxCell id="DYxqlePHaBiBGxS2itR7-64" value="" style="endArrow=none;html=1;rounded=0;exitX=0;exitY=0.5;exitDx=0;exitDy=0;entryX=1;entryY=0.5;entryDx=0;entryDy=0;" edge="1" parent="1" source="DYxqlePHaBiBGxS2itR7-56" target="DYxqlePHaBiBGxS2itR7-45">
          <mxGeometry width="50" height="50" relative="1" as="geometry">
            <mxPoint x="684" y="311" as="sourcePoint" />
            <mxPoint x="678" y="317" as="targetPoint" />
          </mxGeometry>
        </mxCell>
        <mxCell id="DYxqlePHaBiBGxS2itR7-65" value="" style="endArrow=none;html=1;rounded=0;exitX=0.043;exitY=0.284;exitDx=0;exitDy=0;entryX=0.997;entryY=0.923;entryDx=0;entryDy=0;entryPerimeter=0;exitPerimeter=0;" edge="1" parent="1" source="DYxqlePHaBiBGxS2itR7-60" target="DYxqlePHaBiBGxS2itR7-45">
          <mxGeometry width="50" height="50" relative="1" as="geometry">
            <mxPoint x="690" y="344" as="sourcePoint" />
            <mxPoint x="680" y="344" as="targetPoint" />
          </mxGeometry>
        </mxCell>
        <mxCell id="DYxqlePHaBiBGxS2itR7-68" value="&lt;b&gt;&lt;font style=&quot;font-size: 19px;&quot;&gt;Acervo online de obras cientÃ­ficas&lt;/font&gt;&lt;/b&gt;" style="text;html=1;strokeColor=none;fillColor=none;align=left;verticalAlign=middle;whiteSpace=wrap;rounded=0;" vertex="1" parent="1">
          <mxGeometry x="10" y="16" width="380" height="30" as="geometry" />
        </mxCell>
        <mxCell id="DYxqlePHaBiBGxS2itR7-69" value="Publisher" style="rounded=1;arcSize=10;whiteSpace=wrap;html=1;align=center;aspect=fixed;fontStyle=1;fontSize=15;" vertex="1" parent="1">
          <mxGeometry x="545" y="452" width="140" height="56" as="geometry" />
        </mxCell>
        <mxCell id="DYxqlePHaBiBGxS2itR7-71" value="" style="endArrow=none;html=1;rounded=0;exitX=0.25;exitY=1;exitDx=0;exitDy=0;entryX=0.5;entryY=0;entryDx=0;entryDy=0;" edge="1" parent="1" source="DYxqlePHaBiBGxS2itR7-69" target="DYxqlePHaBiBGxS2itR7-81">
          <mxGeometry width="50" height="50" relative="1" as="geometry">
            <mxPoint x="531.29" y="444.5519999999999" as="sourcePoint" />
            <mxPoint x="547" y="453" as="targetPoint" />
          </mxGeometry>
        </mxCell>
        <mxCell id="DYxqlePHaBiBGxS2itR7-73" value="&lt;p style=&quot;line-height: 55%;&quot;&gt;&lt;span style=&quot;font-size: 8px;&quot;&gt;Trade name&lt;/span&gt;&lt;/p&gt;" style="ellipse;whiteSpace=wrap;html=1;align=center;aspect=fixed;" vertex="1" parent="1">
          <mxGeometry x="545" y="410" width="70" height="28" as="geometry" />
        </mxCell>
        <mxCell id="DYxqlePHaBiBGxS2itR7-74" value="&lt;p style=&quot;line-height: 55%; font-size: 8px;&quot;&gt;Company name&lt;/p&gt;" style="ellipse;whiteSpace=wrap;html=1;align=center;aspect=fixed;" vertex="1" parent="1">
          <mxGeometry x="619" y="410" width="70" height="28" as="geometry" />
        </mxCell>
        <mxCell id="DYxqlePHaBiBGxS2itR7-75" value="" style="endArrow=none;html=1;rounded=0;exitX=0.5;exitY=1;exitDx=0;exitDy=0;entryX=0.25;entryY=0;entryDx=0;entryDy=0;" edge="1" parent="1" source="DYxqlePHaBiBGxS2itR7-73" target="DYxqlePHaBiBGxS2itR7-69">
          <mxGeometry width="50" height="50" relative="1" as="geometry">
            <mxPoint x="541" y="455" as="sourcePoint" />
            <mxPoint x="557" y="463" as="targetPoint" />
          </mxGeometry>
        </mxCell>
        <mxCell id="DYxqlePHaBiBGxS2itR7-76" value="" style="endArrow=none;html=1;rounded=0;exitX=0.5;exitY=1;exitDx=0;exitDy=0;entryX=0.781;entryY=0.004;entryDx=0;entryDy=0;entryPerimeter=0;" edge="1" parent="1" source="DYxqlePHaBiBGxS2itR7-74" target="DYxqlePHaBiBGxS2itR7-69">
          <mxGeometry width="50" height="50" relative="1" as="geometry">
            <mxPoint x="590" y="448" as="sourcePoint" />
            <mxPoint x="661" y="450" as="targetPoint" />
          </mxGeometry>
        </mxCell>
        <mxCell id="DYxqlePHaBiBGxS2itR7-77" value="&lt;p style=&quot;line-height: 55%;&quot;&gt;&lt;span style=&quot;font-size: 8px;&quot;&gt;Address&lt;/span&gt;&lt;/p&gt;" style="ellipse;whiteSpace=wrap;html=1;align=center;aspect=fixed;" vertex="1" parent="1">
          <mxGeometry x="695" y="424" width="70" height="28" as="geometry" />
        </mxCell>
        <mxCell id="DYxqlePHaBiBGxS2itR7-78" value="" style="endArrow=none;html=1;rounded=0;exitX=0;exitY=1;exitDx=0;exitDy=0;entryX=1.004;entryY=0.132;entryDx=0;entryDy=0;entryPerimeter=0;" edge="1" parent="1" source="DYxqlePHaBiBGxS2itR7-77" target="DYxqlePHaBiBGxS2itR7-69">
          <mxGeometry width="50" height="50" relative="1" as="geometry">
            <mxPoint x="664" y="448" as="sourcePoint" />
            <mxPoint x="664" y="462" as="targetPoint" />
          </mxGeometry>
        </mxCell>
        <mxCell id="DYxqlePHaBiBGxS2itR7-79" value="&lt;p style=&quot;line-height: 55%;&quot;&gt;&lt;span style=&quot;font-size: 8px;&quot;&gt;URL&lt;/span&gt;&lt;/p&gt;" style="ellipse;whiteSpace=wrap;html=1;align=center;aspect=fixed;" vertex="1" parent="1">
          <mxGeometry x="705" y="470" width="70" height="28" as="geometry" />
        </mxCell>
        <mxCell id="DYxqlePHaBiBGxS2itR7-80" value="" style="endArrow=none;html=1;rounded=0;exitX=0;exitY=0.5;exitDx=0;exitDy=0;entryX=1;entryY=0.5;entryDx=0;entryDy=0;" edge="1" parent="1" source="DYxqlePHaBiBGxS2itR7-79" target="DYxqlePHaBiBGxS2itR7-69">
          <mxGeometry width="50" height="50" relative="1" as="geometry">
            <mxPoint x="715" y="462" as="sourcePoint" />
            <mxPoint x="696" y="469" as="targetPoint" />
          </mxGeometry>
        </mxCell>
        <mxCell id="DYxqlePHaBiBGxS2itR7-81" value="ID_PUB" style="ellipse;whiteSpace=wrap;html=1;align=center;fontStyle=4;fontSize=8;aspect=fixed;" vertex="1" parent="1">
          <mxGeometry x="545" y="522" width="70" height="28" as="geometry" />
        </mxCell>
        <mxCell id="DYxqlePHaBiBGxS2itR7-83" value="" style="endArrow=none;html=1;rounded=0;exitX=0.75;exitY=1;exitDx=0;exitDy=0;entryX=0;entryY=0.5;entryDx=0;entryDy=0;" edge="1" parent="1" source="DYxqlePHaBiBGxS2itR7-2" target="DYxqlePHaBiBGxS2itR7-69">
          <mxGeometry width="50" height="50" relative="1" as="geometry">
            <mxPoint x="420" y="430" as="sourcePoint" />
            <mxPoint x="470" y="380" as="targetPoint" />
            <Array as="points">
              <mxPoint x="295" y="400" />
              <mxPoint x="520" y="400" />
              <mxPoint x="520" y="440" />
              <mxPoint x="520" y="480" />
            </Array>
          </mxGeometry>
        </mxCell>
        <mxCell id="DYxqlePHaBiBGxS2itR7-84" value="N" style="resizable=0;html=1;whiteSpace=wrap;align=left;verticalAlign=bottom;" connectable="0" vertex="1" parent="1">
          <mxGeometry x="295" y="379" as="geometry" />
        </mxCell>
        <mxCell id="DYxqlePHaBiBGxS2itR7-85" value="1" style="resizable=0;html=1;whiteSpace=wrap;align=left;verticalAlign=bottom;" connectable="0" vertex="1" parent="1">
          <mxGeometry x="533" y="481" as="geometry" />
        </mxCell>
        <mxCell id="DYxqlePHaBiBGxS2itR7-121" style="edgeStyle=orthogonalEdgeStyle;rounded=0;orthogonalLoop=1;jettySize=auto;html=1;exitX=1;exitY=0.25;exitDx=0;exitDy=0;entryX=0;entryY=0.5;entryDx=0;entryDy=0;endArrow=none;endFill=0;" edge="1" parent="1" source="DYxqlePHaBiBGxS2itR7-86" target="DYxqlePHaBiBGxS2itR7-120">
          <mxGeometry relative="1" as="geometry" />
        </mxCell>
        <mxCell id="DYxqlePHaBiBGxS2itR7-86" value="File" style="rounded=1;arcSize=10;whiteSpace=wrap;html=1;align=center;aspect=fixed;fontStyle=1;fontSize=15;" vertex="1" parent="1">
          <mxGeometry x="190" y="130" width="140" height="56" as="geometry" />
        </mxCell>
        <mxCell id="DYxqlePHaBiBGxS2itR7-87" value="ID_FILE" style="ellipse;whiteSpace=wrap;html=1;align=center;fontStyle=4;fontSize=8;aspect=fixed;" vertex="1" parent="1">
          <mxGeometry x="100" y="144" width="70" height="28" as="geometry" />
        </mxCell>
        <mxCell id="DYxqlePHaBiBGxS2itR7-89" value="" style="endArrow=none;html=1;rounded=0;exitX=1;exitY=0.5;exitDx=0;exitDy=0;entryX=0;entryY=0.5;entryDx=0;entryDy=0;" edge="1" parent="1" source="DYxqlePHaBiBGxS2itR7-87" target="DYxqlePHaBiBGxS2itR7-86">
          <mxGeometry width="50" height="50" relative="1" as="geometry">
            <mxPoint x="180" y="344" as="sourcePoint" />
            <mxPoint x="200" y="344" as="targetPoint" />
          </mxGeometry>
        </mxCell>
        <mxCell id="DYxqlePHaBiBGxS2itR7-91" value="&lt;span style=&quot;font-size: 8px;&quot;&gt;Extension&lt;/span&gt;" style="ellipse;whiteSpace=wrap;html=1;align=center;aspect=fixed;" vertex="1" parent="1">
          <mxGeometry x="125" y="102" width="70" height="28" as="geometry" />
        </mxCell>
        <mxCell id="DYxqlePHaBiBGxS2itR7-92" value="&lt;span style=&quot;font-size: 8px;&quot;&gt;Filename&lt;/span&gt;" style="ellipse;whiteSpace=wrap;html=1;align=center;aspect=fixed;" vertex="1" parent="1">
          <mxGeometry x="280" y="90" width="70" height="28" as="geometry" />
        </mxCell>
        <mxCell id="DYxqlePHaBiBGxS2itR7-93" value="&lt;span style=&quot;font-size: 8px;&quot;&gt;Storage URL&lt;/span&gt;" style="ellipse;whiteSpace=wrap;html=1;align=center;aspect=fixed;" vertex="1" parent="1">
          <mxGeometry x="280" y="200" width="70" height="28" as="geometry" />
        </mxCell>
        <mxCell id="DYxqlePHaBiBGxS2itR7-94" value="User" style="rounded=1;arcSize=10;whiteSpace=wrap;html=1;align=center;aspect=fixed;fontStyle=1;fontSize=15;" vertex="1" parent="1">
          <mxGeometry x="520" y="130" width="140" height="56" as="geometry" />
        </mxCell>
        <mxCell id="DYxqlePHaBiBGxS2itR7-95" value="&lt;font style=&quot;font-size: 8px;&quot;&gt;Uploads&lt;/font&gt;" style="shape=rhombus;perimeter=rhombusPerimeter;whiteSpace=wrap;html=1;align=center;aspect=fixed;fontStyle=2" vertex="1" parent="1">
          <mxGeometry x="390" y="140.5" width="70" height="35" as="geometry" />
        </mxCell>
        <mxCell id="DYxqlePHaBiBGxS2itR7-96" value="&lt;span style=&quot;font-size: 8px;&quot;&gt;Cover URL&lt;/span&gt;" style="ellipse;whiteSpace=wrap;html=1;align=center;aspect=fixed;" vertex="1" parent="1">
          <mxGeometry x="125" y="190" width="70" height="28" as="geometry" />
        </mxCell>
        <mxCell id="DYxqlePHaBiBGxS2itR7-97" value="&lt;span style=&quot;font-size: 8px;&quot;&gt;Size&lt;/span&gt;" style="ellipse;whiteSpace=wrap;html=1;align=center;aspect=fixed;" vertex="1" parent="1">
          <mxGeometry x="203" y="90" width="70" height="28" as="geometry" />
        </mxCell>
        <mxCell id="DYxqlePHaBiBGxS2itR7-98" value="&lt;span style=&quot;font-size: 8px;&quot;&gt;Tags&lt;/span&gt;" style="ellipse;whiteSpace=wrap;html=1;align=center;aspect=fixed;" vertex="1" parent="1">
          <mxGeometry x="120" y="370" width="70" height="28" as="geometry" />
        </mxCell>
        <mxCell id="DYxqlePHaBiBGxS2itR7-100" value="" style="endArrow=none;html=1;rounded=0;exitX=1;exitY=0;exitDx=0;exitDy=0;entryX=0.023;entryY=0.986;entryDx=0;entryDy=0;entryPerimeter=0;" edge="1" parent="1" source="DYxqlePHaBiBGxS2itR7-98" target="DYxqlePHaBiBGxS2itR7-2">
          <mxGeometry width="50" height="50" relative="1" as="geometry">
            <mxPoint x="180" y="344" as="sourcePoint" />
            <mxPoint x="200" y="344" as="targetPoint" />
          </mxGeometry>
        </mxCell>
        <mxCell id="DYxqlePHaBiBGxS2itR7-101" value="&lt;span style=&quot;font-size: 8px;&quot;&gt;Upload date&lt;/span&gt;" style="ellipse;whiteSpace=wrap;html=1;align=center;aspect=fixed;" vertex="1" parent="1">
          <mxGeometry x="410" y="190" width="70" height="28" as="geometry" />
        </mxCell>
        <mxCell id="DYxqlePHaBiBGxS2itR7-102" value="" style="endArrow=none;html=1;rounded=0;exitX=0.5;exitY=1;exitDx=0;exitDy=0;entryX=0.5;entryY=0;entryDx=0;entryDy=0;" edge="1" parent="1" source="DYxqlePHaBiBGxS2itR7-86" target="DYxqlePHaBiBGxS2itR7-2">
          <mxGeometry relative="1" as="geometry">
            <mxPoint x="340" y="344" as="sourcePoint" />
            <mxPoint x="540" y="344" as="targetPoint" />
          </mxGeometry>
        </mxCell>
        <mxCell id="DYxqlePHaBiBGxS2itR7-103" value="N" style="resizable=0;html=1;whiteSpace=wrap;align=left;verticalAlign=bottom;" connectable="0" vertex="1" parent="DYxqlePHaBiBGxS2itR7-102">
          <mxGeometry x="-1" relative="1" as="geometry">
            <mxPoint y="18" as="offset" />
          </mxGeometry>
        </mxCell>
        <mxCell id="DYxqlePHaBiBGxS2itR7-104" value="1" style="resizable=0;html=1;whiteSpace=wrap;align=right;verticalAlign=bottom;" connectable="0" vertex="1" parent="DYxqlePHaBiBGxS2itR7-102">
          <mxGeometry x="1" relative="1" as="geometry">
            <mxPoint x="11" y="1" as="offset" />
          </mxGeometry>
        </mxCell>
        <mxCell id="DYxqlePHaBiBGxS2itR7-105" value="" style="endArrow=none;html=1;rounded=0;entryX=0.5;entryY=0;entryDx=0;entryDy=0;exitX=0.891;exitY=0.997;exitDx=0;exitDy=0;exitPerimeter=0;" edge="1" parent="1" source="DYxqlePHaBiBGxS2itR7-86" target="DYxqlePHaBiBGxS2itR7-93">
          <mxGeometry width="50" height="50" relative="1" as="geometry">
            <mxPoint x="315" y="190" as="sourcePoint" />
            <mxPoint x="310" y="190" as="targetPoint" />
          </mxGeometry>
        </mxCell>
        <mxCell id="DYxqlePHaBiBGxS2itR7-106" value="" style="endArrow=none;html=1;rounded=0;entryX=0.896;entryY=0.179;entryDx=0;entryDy=0;entryPerimeter=0;exitX=0.05;exitY=1.004;exitDx=0;exitDy=0;exitPerimeter=0;" edge="1" parent="1" source="DYxqlePHaBiBGxS2itR7-86" target="DYxqlePHaBiBGxS2itR7-96">
          <mxGeometry width="50" height="50" relative="1" as="geometry">
            <mxPoint x="197" y="190" as="sourcePoint" />
            <mxPoint x="207" y="199" as="targetPoint" />
          </mxGeometry>
        </mxCell>
        <mxCell id="DYxqlePHaBiBGxS2itR7-107" value="" style="endArrow=none;html=1;rounded=0;entryX=0.007;entryY=0.034;entryDx=0;entryDy=0;entryPerimeter=0;exitX=1;exitY=1;exitDx=0;exitDy=0;" edge="1" parent="1" source="DYxqlePHaBiBGxS2itR7-91" target="DYxqlePHaBiBGxS2itR7-86">
          <mxGeometry width="50" height="50" relative="1" as="geometry">
            <mxPoint x="190" y="134" as="sourcePoint" />
            <mxPoint x="181" y="143" as="targetPoint" />
          </mxGeometry>
        </mxCell>
        <mxCell id="DYxqlePHaBiBGxS2itR7-108" value="" style="endArrow=none;html=1;rounded=0;entryX=0.342;entryY=0.001;entryDx=0;entryDy=0;entryPerimeter=0;exitX=0.5;exitY=1;exitDx=0;exitDy=0;" edge="1" parent="1" source="DYxqlePHaBiBGxS2itR7-97" target="DYxqlePHaBiBGxS2itR7-86">
          <mxGeometry width="50" height="50" relative="1" as="geometry">
            <mxPoint x="195" y="136" as="sourcePoint" />
            <mxPoint x="201" y="142" as="targetPoint" />
          </mxGeometry>
        </mxCell>
        <mxCell id="DYxqlePHaBiBGxS2itR7-109" value="" style="endArrow=none;html=1;rounded=0;entryX=0.342;entryY=0.001;entryDx=0;entryDy=0;entryPerimeter=0;exitX=0.5;exitY=1;exitDx=0;exitDy=0;" edge="1" parent="1" source="DYxqlePHaBiBGxS2itR7-92">
          <mxGeometry width="50" height="50" relative="1" as="geometry">
            <mxPoint x="314.95" y="118" as="sourcePoint" />
            <mxPoint x="314.95" y="130" as="targetPoint" />
          </mxGeometry>
        </mxCell>
        <mxCell id="DYxqlePHaBiBGxS2itR7-110" value="" style="endArrow=none;html=1;rounded=0;entryX=0.614;entryY=0.9;entryDx=0;entryDy=0;exitX=0.5;exitY=0;exitDx=0;exitDy=0;entryPerimeter=0;" edge="1" parent="1" source="DYxqlePHaBiBGxS2itR7-101" target="DYxqlePHaBiBGxS2itR7-95">
          <mxGeometry width="50" height="50" relative="1" as="geometry">
            <mxPoint x="460" y="218" as="sourcePoint" />
            <mxPoint x="325" y="210" as="targetPoint" />
          </mxGeometry>
        </mxCell>
        <mxCell id="DYxqlePHaBiBGxS2itR7-111" value="" style="endArrow=none;html=1;rounded=0;exitX=1;exitY=0.5;exitDx=0;exitDy=0;entryX=0;entryY=0.5;entryDx=0;entryDy=0;" edge="1" parent="1" target="DYxqlePHaBiBGxS2itR7-95">
          <mxGeometry relative="1" as="geometry">
            <mxPoint x="330" y="157.86" as="sourcePoint" />
            <mxPoint x="530" y="157.86" as="targetPoint" />
          </mxGeometry>
        </mxCell>
        <mxCell id="DYxqlePHaBiBGxS2itR7-112" value="N" style="resizable=0;html=1;whiteSpace=wrap;align=left;verticalAlign=bottom;" connectable="0" vertex="1" parent="DYxqlePHaBiBGxS2itR7-111">
          <mxGeometry x="-1" relative="1" as="geometry">
            <mxPoint y="18" as="offset" />
          </mxGeometry>
        </mxCell>
        <mxCell id="DYxqlePHaBiBGxS2itR7-117" value="" style="endArrow=none;html=1;rounded=0;exitX=1;exitY=0.5;exitDx=0;exitDy=0;entryX=0;entryY=0.5;entryDx=0;entryDy=0;" edge="1" parent="1" source="DYxqlePHaBiBGxS2itR7-95">
          <mxGeometry relative="1" as="geometry">
            <mxPoint x="473" y="157.86" as="sourcePoint" />
            <mxPoint x="520" y="158" as="targetPoint" />
          </mxGeometry>
        </mxCell>
        <mxCell id="DYxqlePHaBiBGxS2itR7-119" value="1" style="resizable=0;html=1;whiteSpace=wrap;align=right;verticalAlign=bottom;" connectable="0" vertex="1" parent="DYxqlePHaBiBGxS2itR7-117">
          <mxGeometry x="1" relative="1" as="geometry">
            <mxPoint y="18" as="offset" />
          </mxGeometry>
        </mxCell>
        <mxCell id="DYxqlePHaBiBGxS2itR7-123" style="edgeStyle=orthogonalEdgeStyle;rounded=0;orthogonalLoop=1;jettySize=auto;html=1;exitX=1;exitY=0.5;exitDx=0;exitDy=0;entryX=0;entryY=0.25;entryDx=0;entryDy=0;endArrow=none;endFill=0;" edge="1" parent="1" source="DYxqlePHaBiBGxS2itR7-120" target="DYxqlePHaBiBGxS2itR7-94">
          <mxGeometry relative="1" as="geometry" />
        </mxCell>
        <mxCell id="DYxqlePHaBiBGxS2itR7-120" value="&lt;font style=&quot;font-size: 8px;&quot;&gt;Downloads&lt;/font&gt;" style="shape=rhombus;perimeter=rhombusPerimeter;whiteSpace=wrap;html=1;align=center;aspect=fixed;fontStyle=2" vertex="1" parent="1">
          <mxGeometry x="390" y="83" width="70" height="35" as="geometry" />
        </mxCell>
        <mxCell id="DYxqlePHaBiBGxS2itR7-124" value="N" style="resizable=0;html=1;whiteSpace=wrap;align=left;verticalAlign=bottom;" connectable="0" vertex="1" parent="1">
          <mxGeometry x="330" y="146" as="geometry" />
        </mxCell>
        <mxCell id="DYxqlePHaBiBGxS2itR7-125" value="M" style="resizable=0;html=1;whiteSpace=wrap;align=left;verticalAlign=bottom;" connectable="0" vertex="1" parent="1">
          <mxGeometry x="507" y="146" as="geometry" />
        </mxCell>
        <mxCell id="DYxqlePHaBiBGxS2itR7-126" value="&lt;span style=&quot;font-size: 8px;&quot;&gt;Download date&lt;/span&gt;" style="ellipse;whiteSpace=wrap;html=1;align=center;aspect=fixed;" vertex="1" parent="1">
          <mxGeometry x="425" y="55" width="70" height="28" as="geometry" />
        </mxCell>
        <mxCell id="DYxqlePHaBiBGxS2itR7-127" value="" style="endArrow=none;html=1;rounded=0;entryX=0.5;entryY=1;entryDx=0;entryDy=0;exitX=1;exitY=0;exitDx=0;exitDy=0;" edge="1" parent="1" source="DYxqlePHaBiBGxS2itR7-120" target="DYxqlePHaBiBGxS2itR7-126">
          <mxGeometry width="50" height="50" relative="1" as="geometry">
            <mxPoint x="477" y="112" as="sourcePoint" />
            <mxPoint x="460" y="89" as="targetPoint" />
          </mxGeometry>
        </mxCell>
        <mxCell id="DYxqlePHaBiBGxS2itR7-129" value="ID_USER" style="ellipse;whiteSpace=wrap;html=1;align=center;fontStyle=4;fontSize=8;aspect=fixed;" vertex="1" parent="1">
          <mxGeometry x="498" y="90" width="70" height="28" as="geometry" />
        </mxCell>
        <mxCell id="DYxqlePHaBiBGxS2itR7-131" value="&lt;p style=&quot;line-height: 55%;&quot;&gt;&lt;span style=&quot;font-size: 8px;&quot;&gt;Joined date&lt;/span&gt;&lt;/p&gt;" style="ellipse;whiteSpace=wrap;html=1;align=center;aspect=fixed;" vertex="1" parent="1">
          <mxGeometry x="570" y="90" width="70" height="28" as="geometry" />
        </mxCell>
        <mxCell id="DYxqlePHaBiBGxS2itR7-132" value="&lt;p style=&quot;line-height: 55%;&quot;&gt;&lt;span style=&quot;font-size: 8px;&quot;&gt;Username&lt;/span&gt;&lt;/p&gt;" style="ellipse;whiteSpace=wrap;html=1;align=center;aspect=fixed;" vertex="1" parent="1">
          <mxGeometry x="643" y="91" width="70" height="28" as="geometry" />
        </mxCell>
        <mxCell id="DYxqlePHaBiBGxS2itR7-133" value="&lt;font style=&quot;font-size: 8px;&quot;&gt;Birth Date&lt;/font&gt;" style="ellipse;whiteSpace=wrap;html=1;align=center;aspect=fixed;" vertex="1" parent="1">
          <mxGeometry x="680" y="117" width="70" height="28" as="geometry" />
        </mxCell>
        <mxCell id="DYxqlePHaBiBGxS2itR7-134" value="&lt;p style=&quot;line-height: 55%;&quot;&gt;&lt;font style=&quot;font-size: 8px;&quot;&gt;Nationality&lt;/font&gt;&lt;br&gt;&lt;/p&gt;" style="ellipse;whiteSpace=wrap;html=1;align=center;aspect=fixed;" vertex="1" parent="1">
          <mxGeometry x="680" y="148" width="70" height="28" as="geometry" />
        </mxCell>
        <mxCell id="DYxqlePHaBiBGxS2itR7-135" value="&lt;p style=&quot;line-height: 55%;&quot;&gt;&lt;font style=&quot;font-size: 8px;&quot;&gt;Password&lt;/font&gt;&lt;br&gt;&lt;/p&gt;" style="ellipse;whiteSpace=wrap;html=1;align=center;aspect=fixed;" vertex="1" parent="1">
          <mxGeometry x="555" y="200" width="70" height="28" as="geometry" />
        </mxCell>
        <mxCell id="DYxqlePHaBiBGxS2itR7-136" value="&lt;p style=&quot;line-height: 55%;&quot;&gt;&lt;font style=&quot;font-size: 8px;&quot;&gt;Email&lt;/font&gt;&lt;br&gt;&lt;/p&gt;" style="ellipse;whiteSpace=wrap;html=1;align=center;aspect=fixed;" vertex="1" parent="1">
          <mxGeometry x="480" y="200" width="70" height="28" as="geometry" />
        </mxCell>
        <mxCell id="DYxqlePHaBiBGxS2itR7-138" value="" style="endArrow=none;html=1;rounded=0;entryX=0.5;entryY=1;entryDx=0;entryDy=0;exitX=0.164;exitY=0.01;exitDx=0;exitDy=0;exitPerimeter=0;" edge="1" parent="1" source="DYxqlePHaBiBGxS2itR7-94" target="DYxqlePHaBiBGxS2itR7-129">
          <mxGeometry width="50" height="50" relative="1" as="geometry">
            <mxPoint x="557" y="140.5" as="sourcePoint" />
            <mxPoint x="545" y="122.5" as="targetPoint" />
          </mxGeometry>
        </mxCell>
        <mxCell id="DYxqlePHaBiBGxS2itR7-139" value="" style="endArrow=none;html=1;rounded=0;entryX=0.5;entryY=1;entryDx=0;entryDy=0;exitX=0.59;exitY=-0.011;exitDx=0;exitDy=0;exitPerimeter=0;" edge="1" parent="1" source="DYxqlePHaBiBGxS2itR7-94" target="DYxqlePHaBiBGxS2itR7-131">
          <mxGeometry width="50" height="50" relative="1" as="geometry">
            <mxPoint x="553" y="141" as="sourcePoint" />
            <mxPoint x="552" y="128" as="targetPoint" />
          </mxGeometry>
        </mxCell>
        <mxCell id="DYxqlePHaBiBGxS2itR7-140" value="" style="endArrow=none;html=1;rounded=0;entryX=0;entryY=1;entryDx=0;entryDy=0;exitX=0.872;exitY=0.006;exitDx=0;exitDy=0;exitPerimeter=0;" edge="1" parent="1" source="DYxqlePHaBiBGxS2itR7-94" target="DYxqlePHaBiBGxS2itR7-132">
          <mxGeometry width="50" height="50" relative="1" as="geometry">
            <mxPoint x="627" y="140" as="sourcePoint" />
            <mxPoint x="628" y="128" as="targetPoint" />
          </mxGeometry>
        </mxCell>
        <mxCell id="DYxqlePHaBiBGxS2itR7-141" value="" style="endArrow=none;html=1;rounded=0;entryX=0;entryY=0.5;entryDx=0;entryDy=0;exitX=1;exitY=0.25;exitDx=0;exitDy=0;" edge="1" parent="1" source="DYxqlePHaBiBGxS2itR7-94" target="DYxqlePHaBiBGxS2itR7-133">
          <mxGeometry width="50" height="50" relative="1" as="geometry">
            <mxPoint x="667" y="141" as="sourcePoint" />
            <mxPoint x="679" y="131" as="targetPoint" />
          </mxGeometry>
        </mxCell>
        <mxCell id="DYxqlePHaBiBGxS2itR7-142" value="" style="endArrow=none;html=1;rounded=0;entryX=0;entryY=0.5;entryDx=0;entryDy=0;exitX=1;exitY=0.613;exitDx=0;exitDy=0;exitPerimeter=0;" edge="1" parent="1" source="DYxqlePHaBiBGxS2itR7-94" target="DYxqlePHaBiBGxS2itR7-134">
          <mxGeometry width="50" height="50" relative="1" as="geometry">
            <mxPoint x="661" y="164" as="sourcePoint" />
            <mxPoint x="686" y="154" as="targetPoint" />
          </mxGeometry>
        </mxCell>
        <mxCell id="DYxqlePHaBiBGxS2itR7-144" value="" style="endArrow=none;html=1;rounded=0;entryX=0.5;entryY=0;entryDx=0;entryDy=0;exitX=0.5;exitY=1;exitDx=0;exitDy=0;" edge="1" parent="1" source="DYxqlePHaBiBGxS2itR7-94" target="DYxqlePHaBiBGxS2itR7-135">
          <mxGeometry width="50" height="50" relative="1" as="geometry">
            <mxPoint x="609" y="190" as="sourcePoint" />
            <mxPoint x="621" y="204" as="targetPoint" />
          </mxGeometry>
        </mxCell>
        <mxCell id="DYxqlePHaBiBGxS2itR7-145" value="" style="endArrow=none;html=1;rounded=0;entryX=0.5;entryY=0;entryDx=0;entryDy=0;exitX=0.17;exitY=0.997;exitDx=0;exitDy=0;exitPerimeter=0;" edge="1" parent="1" source="DYxqlePHaBiBGxS2itR7-94" target="DYxqlePHaBiBGxS2itR7-136">
          <mxGeometry width="50" height="50" relative="1" as="geometry">
            <mxPoint x="545" y="189" as="sourcePoint" />
            <mxPoint x="549" y="203" as="targetPoint" />
          </mxGeometry>
        </mxCell>
        <mxCell id="DYxqlePHaBiBGxS2itR7-148" style="edgeStyle=orthogonalEdgeStyle;rounded=0;orthogonalLoop=1;jettySize=auto;html=1;exitX=0.5;exitY=0;exitDx=0;exitDy=0;entryX=1.002;entryY=0.858;entryDx=0;entryDy=0;entryPerimeter=0;endArrow=none;endFill=0;" edge="1" parent="1" source="DYxqlePHaBiBGxS2itR7-146" target="DYxqlePHaBiBGxS2itR7-94">
          <mxGeometry relative="1" as="geometry" />
        </mxCell>
        <mxCell id="DYxqlePHaBiBGxS2itR7-146" value="&lt;font style=&quot;font-size: 8px;&quot;&gt;Follows&lt;/font&gt;" style="shape=rhombus;perimeter=rhombusPerimeter;whiteSpace=wrap;html=1;align=center;aspect=fixed;fontStyle=2" vertex="1" parent="1">
          <mxGeometry x="661" y="201" width="70" height="35" as="geometry" />
        </mxCell>
        <mxCell id="DYxqlePHaBiBGxS2itR7-149" value="N" style="resizable=0;html=1;whiteSpace=wrap;align=left;verticalAlign=bottom;direction=west;fontSize=10;" connectable="0" vertex="1" parent="1">
          <mxGeometry x="632" y="201" as="geometry" />
        </mxCell>
        <mxCell id="DYxqlePHaBiBGxS2itR7-150" value="M" style="resizable=0;html=1;whiteSpace=wrap;align=left;verticalAlign=bottom;fontSize=10;" connectable="0" vertex="1" parent="1">
          <mxGeometry x="660" y="192" as="geometry" />
        </mxCell>
        <mxCell id="DYxqlePHaBiBGxS2itR7-151" style="edgeStyle=orthogonalEdgeStyle;rounded=0;orthogonalLoop=1;jettySize=auto;html=1;entryX=0.889;entryY=1.007;entryDx=0;entryDy=0;entryPerimeter=0;endArrow=none;endFill=0;exitX=0;exitY=0.5;exitDx=0;exitDy=0;" edge="1" parent="1" source="DYxqlePHaBiBGxS2itR7-146" target="DYxqlePHaBiBGxS2itR7-94">
          <mxGeometry relative="1" as="geometry">
            <mxPoint x="660" y="218" as="sourcePoint" />
            <mxPoint x="644" y="194.49" as="targetPoint" />
            <Array as="points">
              <mxPoint x="645" y="219" />
            </Array>
          </mxGeometry>
        </mxCell>
      </root>
    </mxGraphModel>
  </diagram>
</mxfile>
